<svg xmlns="http://www.w3.org/2000/svg" width="120" height="120" viewBox="0 0 120 120">
  <defs>
    <style>
      .cls-1 {
        opacity: 0.5;
      }

      .cls-2 {
        fill: #fff;
        stroke: #707070;
        opacity: 0;
      }

      .cls-3 {
        fill: #aaa;
      }

      .cls-4 {
        stroke: none;
      }

      .cls-5 {
        fill: none;
      }
    </style>
  </defs>
  <g id="组_4887" data-name="组 4887" class="cls-1" transform="translate(-3134 2942)">
    <g id="矩形_1848" data-name="矩形 1848" class="cls-2" transform="translate(3134 -2942)">
      <rect class="cls-4" width="120" height="120"/>
      <rect class="cls-5" x="0.5" y="0.5" width="119" height="119"/>
    </g>
    <g id="组_4882" data-name="组 4882" class="cls-1" transform="translate(-2136.252 -12820.499)">
      <g id="组_4872" data-name="组 4872" class="cls-1" transform="translate(5270.252 9886.499)">
        <path id="路径_3621" data-name="路径 3621" class="cls-3" d="M644.236,250.769a2.279,2.279,0,0,0-2.279-2.279H628.284a2.279,2.279,0,1,0,0,4.557h13.673A2.279,2.279,0,0,0,644.236,250.769Z" transform="translate(-550.783 -231.764)"/>
        <path id="路径_3622" data-name="路径 3622" class="cls-3" d="M180.356,222.485h-3.623a6.016,6.016,0,0,0,.137-2.393l-6.13-39.833a7.907,7.907,0,0,0-7.839-6.722H149.228V161.231h4.558a2.279,2.279,0,0,0,1.618-.661l9.8-9.8a2.279,2.279,0,0,0,.684-1.618V135.3a2.279,2.279,0,0,0-.684-1.618l-9.8-9.8a2.279,2.279,0,0,0-1.618-.661H140.067a2.279,2.279,0,0,0-1.618.661l-9.8,9.8a2.279,2.279,0,0,0-.661,1.618v13.855a2.279,2.279,0,0,0,.661,1.618l9.8,9.8a2.393,2.393,0,0,0,1.618.661h4.558v12.305h-36.05a7.884,7.884,0,0,0-7.839,6.722l-.638,3.988H92.646a2.279,2.279,0,1,0,0,4.557h6.836l-4.877,31.287a5.629,5.629,0,0,0,.137,2.393H90.732l-4.558-25.066A4.261,4.261,0,0,0,82,193.909v-1.025a7.474,7.474,0,1,0-4.558,0v1.025a4.284,4.284,0,0,0-4.17,3.509l-4.558,25.066H64.913a2.279,2.279,0,1,0,0,4.557H180.356a2.279,2.279,0,0,0,0-4.558ZM76.809,185.705a2.94,2.94,0,1,1,1.384,2.76A2.94,2.94,0,0,1,76.809,185.705ZM77.72,198.4h4.011l1.048,5.743-5.515-3.19ZM76.4,205.713l7.5,4.307,1.025,5.674-9.366-5.378Zm-1.618,9.366,11.257,6.494.182.912H73.345Zm94-18.23,2.484,16.157H100.28l2.507-16.157Zm-27.755-40.175-8.477-8.454V136.233l8.477-8.454h11.964l8.386,8.454v11.986l-8.386,8.454Zm-32.45,21.42H162.9a3.35,3.35,0,0,1,3.327,2.848l1.755,11.394H103.47l1.755-11.394a3.373,3.373,0,0,1,3.35-2.848Zm63.441,43.889a1.481,1.481,0,0,1-1.139.5h-70.3a1.572,1.572,0,0,1-1.139-.5,1.527,1.527,0,0,1-.342-1.208l.5-3.145h72.283l.479,3.076a1.527,1.527,0,0,1-.342,1.276Z" transform="translate(-62.635 -123.221)"/>
        <path id="路径_3623" data-name="路径 3623" class="cls-3" d="M240.227,410.057l-1.664,1.686a2.279,2.279,0,0,0,3.213,3.213l3.281-3.281a2.279,2.279,0,0,0,0-3.213l-3.486-3.509a2.288,2.288,0,0,0-3.236,3.236Zm-16.088,0-1.664,1.686a2.279,2.279,0,1,0,3.213,3.213l3.281-3.281a2.279,2.279,0,0,0,0-3.213l-3.487-3.509a2.288,2.288,0,0,0-3.236,3.236Zm32.176,0-1.663,1.686a2.279,2.279,0,0,0,3.213,3.213l3.281-3.281a2.279,2.279,0,0,0,0-3.213l-3.487-3.509a2.288,2.288,0,0,0-3.236,3.236Zm16.088,0-1.664,1.686a2.279,2.279,0,0,0,3.213,3.213l3.281-3.281a2.279,2.279,0,0,0,0-3.213l-3.486-3.509a2.288,2.288,0,0,0-3.236,3.236ZM196.5,379.134a2.279,2.279,0,0,0,2.279-2.279v-2.461H234.37a2.279,2.279,0,0,0,0-4.558H231l-6.95-7.793a6.857,6.857,0,0,0-10.209,0l-1.367,1.527a5.537,5.537,0,0,0-7.338.547l-5.082,5.72H196.5a2.279,2.279,0,0,0-2.279,2.279v4.74A2.279,2.279,0,0,0,196.5,379.134Zm20.76-14.06a2.292,2.292,0,0,1,3.4,0l4.239,4.763h-6.722l-2.575-2.894Zm-8.7,2.074c.387-.433.729-.433,1.139,0l2.279,2.689h-5.925Zm33.521,7.246h4.558a2.279,2.279,0,0,0,0-4.558h-4.558a2.279,2.279,0,0,0,0,4.558Zm-5.765,18.071H263.2a2.279,2.279,0,1,0,0-4.558H236.307a2.279,2.279,0,1,0,0,4.557Z" transform="translate(-176.649 -328.181)"/>
      </g>
    </g>
  </g>
</svg>
