<svg xmlns="http://www.w3.org/2000/svg" xmlns:xlink="http://www.w3.org/1999/xlink" width="630" height="252" viewBox="0 0 630 252">
  <defs>
    <style>
      .cls-1, .cls-3 {
        fill: #fafafa;
      }

      .cls-2 {
        clip-path: url(#clip-path);
      }

      .cls-3 {
        mix-blend-mode: multiply;
        isolation: isolate;
      }

      .cls-4, .cls-8 {
        fill: #fff;
      }

      .cls-4 {
        opacity: 0.82;
      }

      .cls-5 {
        fill: #f1f1f2;
      }

      .cls-6, .cls-7, .cls-9 {
        fill: #e3e4e5;
      }

      .cls-6 {
        opacity: 0.8;
      }

      .cls-7 {
        opacity: 0.4;
      }
    </style>
    <clipPath id="clip-path">
      <rect id="矩形_1846" data-name="矩形 1846" class="cls-1" width="630" height="252" transform="translate(4947 9741)"/>
    </clipPath>
  </defs>
  <g id="组_4880" data-name="组 4880" transform="translate(-4947 -9741)">
    <rect id="矩形_1849" data-name="矩形 1849" class="cls-1" width="630" height="252" transform="translate(4947 9741)"/>
    <g id="蒙版组_32" data-name="蒙版组 32" class="cls-2">
      <path id="路径_3636" data-name="路径 3636" class="cls-3" d="M621.727-153.688C766.979-195,584.917-76.33,650.161-60.611,739.044-39.2,521.149-125.328,521.149-88.044c0,64.617-231.411,0-442.936,0S-6.115,313.858-6.115,249.24c0-42.518,87.375-215.375,240.777-219.439C359.619,25.738,378.924-127.275,621.727-153.688Z" transform="translate(4911 9790)"/>
    </g>
    <g id="组_4885" data-name="组 4885" transform="translate(5118.761 9580.084)">
      <g id="组_4888" data-name="组 4888" transform="translate(36.991 11.21)">
        <path id="路径_3625" data-name="路径 3625" class="cls-4" d="M763.642,234.049a15.735,15.735,0,1,1,15.735-15.735A15.751,15.751,0,0,1,763.642,234.049Zm0-24.477a8.741,8.741,0,1,0,8.742,8.741A8.749,8.749,0,0,0,763.642,209.573Z" transform="translate(-849.923 -4.168)"/>
        <path id="路径_3626" data-name="路径 3626" class="cls-5" d="M88.471,648.154a15.735,15.735,0,1,1,15.735-15.736A15.752,15.752,0,0,1,88.471,648.154Zm0-24.477a8.742,8.742,0,1,0,8.742,8.741A8.749,8.749,0,0,0,88.471,623.677Z" transform="translate(-97.001 -328.426)"/>
        <path id="路径_3627" data-name="路径 3627" class="cls-6" d="M565.289,326.971a12.239,12.239,0,1,1,12.238-12.239A12.254,12.254,0,0,1,565.289,326.971Zm0-17.483a5.245,5.245,0,1,0,5.245,5.245A5.25,5.25,0,0,0,565.289,309.488Z" transform="translate(-513.643 -56.672)"/>
        <path id="路径_3628" data-name="路径 3628" class="cls-6" d="M883.911,344.838l1.655-11.79-15.01,2.765,1.014-16.09-15.38,2.835L857.481,302l6.979.437-.73,11.617,15.379-2.834-1.014,16.09,15.749-2.9-1.786,12.7,12.054-1.055.608,6.966Z" transform="translate(-890.468 559.192) rotate(-39)"/>
        <path id="路径_3633" data-name="路径 3633" class="cls-6" d="M883.911,344.838l1.655-11.79-15.01,2.765,1.014-16.09-15.38,2.835L857.481,302l6.979.437-.73,11.617,15.379-2.834-1.014,16.09,15.749-2.9-1.786,12.7,12.054-1.055.608,6.966Z" transform="translate(-957.468 559.192) rotate(-39)"/>
        <path id="路径_3635" data-name="路径 3635" class="cls-7" d="M883.911,344.838l1.655-11.79-15.01,2.765,1.014-16.09-15.38,2.835L857.481,302l6.979.437-.73,11.617,15.379-2.834-1.014,16.09,15.749-2.9-1.786,12.7,12.054-1.055.608,6.966Z" transform="translate(-958.468 607.192) rotate(-39)"/>
      </g>
      <path id="路径_3631" data-name="路径 3631" class="cls-7" d="M392,398.454a7.57,7.57,0,0,0,7.549-7.549v-86.8A7.569,7.569,0,0,0,392,296.562H275.016a7.569,7.569,0,0,0-7.546,7.546v86.8a7.569,7.569,0,0,0,7.546,7.549Z" transform="translate(-50.231 -71.646)"/>
      <path id="路径_3637" data-name="路径 3637" class="cls-8" d="M376.078,384.813a6.579,6.579,0,0,0,6.584-6.538V303.1a6.579,6.579,0,0,0-6.584-6.536H274.051a6.578,6.578,0,0,0-6.581,6.536v75.177a6.579,6.579,0,0,0,6.581,6.538Z" transform="translate(-22.387 -47.004)"/>
      <path id="路径_3632" data-name="路径 3632" class="cls-9" d="M444.321,366.317H327.332a7.569,7.569,0,0,0-7.546,7.546v86.8a7.57,7.57,0,0,0,7.546,7.549H444.32a7.57,7.57,0,0,0,7.548-7.549v-86.8A7.569,7.569,0,0,0,444.321,366.317Zm-73.849,15.124a9.344,9.344,0,0,1,9.434,9.437,9.665,9.665,0,0,1-9.434,9.808,9.341,9.341,0,0,1-9.434-9.432C361.415,385.594,365.568,381.441,370.472,381.441Zm-3.4,71.7a5.661,5.661,0,1,1,5.662-5.66A5.8,5.8,0,0,1,367.076,453.145Zm18.869,0a5.661,5.661,0,1,1,5.661-5.66A5.8,5.8,0,0,1,385.945,453.145Zm18.869,0a5.661,5.661,0,1,1,5.661-5.66A5.8,5.8,0,0,1,404.814,453.145Zm27.926-26.417H342.547a4.654,4.654,0,0,1-3.019-1.511,4.058,4.058,0,0,1,.754-5.281l12.831-9.434a7.418,7.418,0,0,1,8.3-.377L375.38,418.8l30.191-18.869a7.339,7.339,0,0,1,9.054.754l20.757,19.626a4.083,4.083,0,0,1,1.134,2.641A3.569,3.569,0,0,1,432.74,426.728Z" transform="translate(-86.68 -120.244)"/>
    </g>
  </g>
</svg>
